<svg width="88" height="60" fill="none" xmlns="http://www.w3.org/2000/svg"><path d="M.14 30.08l-1-.019v.038l1-.019zm7.76 20.8l.732-.681-.732.681zm19.36 8.32l-.02 1h.04l-.02-1zm19.36-8.08l.725.688.004-.003-.729-.685zm7.68-21.04l1 .018v-.036l-1 .018zm-7.68-21.2l-.729.685.004.003.725-.688zM27.26.8l.013-1h-.033l.02 1zM7.82 9.12l-.732-.681-.004.004.736.677zm3.52 20.96l-1-.01v.03l1-.019zm4.48-13.44l.753.658.001-.001-.754-.657zm11.52-5.12l.023-1h-.045l.022 1zm11.36 5.12l-.76.65.76-.65zm4.4 13.44l1 .01v-.02l-1 .01zm-4.4 13.28l-.76-.65.76.65zm-11.36 5.12l-.023 1h.046l-.023-1zm-11.52-5.12l-.76.65.006.007.006.007.748-.664zM-.86 30.099c.164 8.686 2.821 15.868 8.028 21.462L8.632 50.2c-4.82-5.18-7.336-11.864-7.492-20.138l-2 .038zM7.168 51.56c5.212 5.6 11.93 8.474 20.072 8.639l.04-2c-7.644-.155-13.833-2.828-18.648-8.001L7.168 51.56zM27.28 60.2c8.184-.165 14.901-2.95 20.065-8.392l-1.45-1.376C41.138 55.443 34.95 58.045 27.24 58.2l.04 2zm20.069-8.395c5.164-5.497 7.787-12.766 7.95-21.707l-1.999-.036c-.156 8.552-2.652 15.31-7.409 20.373l1.458 1.37zm7.95-21.743c-.163-9.095-2.783-16.422-7.954-21.87l-1.45 1.376c4.75 5.005 7.248 11.811 7.405 20.53l2-.036zM47.35 8.195C42.184 2.697 35.462-.09 27.273-.2l-.026 2c7.704.103 13.889 2.703 18.644 7.765l1.458-1.37zM27.239-.2c-8.191.165-14.937 3.037-20.15 8.64L8.552 9.8c4.813-5.17 11.028-7.845 18.728-8l-.04-2zM7.085 8.443C1.931 14.04-.696 21.275-.86 30.06l2 .038c.156-8.387 2.65-15.125 7.416-20.302L7.084 8.443zm5.256 21.646c.052-5.424 1.494-9.653 4.233-12.791l-1.506-1.316c-3.127 3.582-4.672 8.313-4.727 14.088l2 .02zm4.234-12.792c2.676-3.073 6.24-4.676 10.788-4.777l-.044-2c-5.052.113-9.169 1.923-12.252 5.463l1.508 1.314zm10.743-4.777c4.492.1 8 1.7 10.623 4.77l1.52-1.3c-3.03-3.544-7.096-5.357-12.098-5.47l-.044 2zm10.624 4.77c2.69 3.139 4.107 7.37 4.159 12.8l2-.02c-.055-5.77-1.57-10.499-4.64-14.08l-1.52 1.3zm4.16 12.78c-.053 5.317-1.468 9.498-4.16 12.64l1.518 1.3c3.068-3.578 4.586-8.25 4.641-13.92l-2-.02zM37.94 42.71c-2.624 3.07-6.131 4.67-10.622 4.77l.044 2c5.003-.113 9.068-1.926 12.098-5.47l-1.52-1.3zm-10.577 4.77c-4.492-.1-8.061-1.702-10.795-4.784l-1.496 1.328c3.133 3.531 7.244 5.343 12.245 5.456l.046-2zm-10.784-4.77c-2.695-3.145-4.136-7.33-4.24-12.65l-1.999.04c.11 5.667 1.656 10.335 4.72 13.91l1.52-1.3zm43.172-24.87h-1v1h1v-1zm9.2-.72l-.152-.988-.01.001-.011.002.173.985zm7.68-2.08h1v-1.49l-1.378.564.378.926zm0 42.96h-1v1h1v-1zm11.2 0v1h1v-1h-1zm0-56h1V1h-1v1zm-9.52 0V1h-.335l-.268.202.603.798zm-7.84 3.68l.243.97.012-.003-.255-.967zM59.751 6.8v-1h-1v1h1zm0 12.04c3.459 0 6.585-.243 9.374-.735l-.347-1.97c-2.652.468-5.659.705-9.027.705v2zm9.352-.732c2.843-.437 5.48-1.15 7.907-2.143l-.757-1.85c-2.267.927-4.75 1.6-7.454 2.017l.304 1.976zm6.528-3.068V58h2V15.04h-2zm1 43.96h11.2v-2h-11.2v2zm12.2-1V2h-2v56h2zm-1-57h-9.52v2h9.52V1zm-10.123.202c-2.068 1.564-4.559 2.74-7.491 3.51l.509 1.935c3.148-.828 5.883-2.107 8.188-3.85l-1.206-1.595zm-7.48 3.508c-2.884.721-6.372 1.09-10.477 1.09v2c4.216 0 7.875-.378 10.963-1.15l-.485-1.94zM58.752 6.8v11.04h2V6.8h-2z" fill="#fff"/></svg>