<svg width="107" height="60" fill="none" xmlns="http://www.w3.org/2000/svg"><path d="M-.305 30.08c0 17.123 11.981 30.12 28.12 30.12v-2c-14.902 0-26.12-11.964-26.12-28.12h-2zm28.12 30.12c16.21 0 28.04-12.348 28.04-30.12h-2c0 16.788-11.05 28.12-26.04 28.12v2zm28.04-30.12c0-8.98-2.935-16.555-7.94-21.894C42.904 2.844 35.875-.2 27.814-.2v2c7.538 0 14.03 2.836 18.64 7.754 4.614 4.921 7.4 11.986 7.4 20.526h2zM27.815-.2C11.59-.2-.305 12.802-.305 30.08h2c0-16.322 11.144-28.28 26.12-28.28v-2zm-14.92 30.28c0-5.325 1.58-9.72 4.216-12.766 2.626-3.035 6.347-4.794 10.784-4.794v-2c-5.004 0-9.282 2.001-12.297 5.486-3.004 3.473-4.703 8.36-4.703 14.074h2zm15-17.56c4.392 0 8.051 1.755 10.628 4.788 2.587 3.045 4.132 7.44 4.132 12.772h2c0-5.708-1.656-10.593-4.608-14.067-2.964-3.488-7.184-5.493-12.152-5.493v2zm14.76 17.56c0 5.207-1.542 9.564-4.131 12.601-2.579 3.026-6.24 4.799-10.63 4.799v2c4.971 0 9.19-2.027 12.152-5.501 2.95-3.463 4.609-8.306 4.609-13.899h-2zm-14.76 17.4c-8.683 0-15-7.018-15-17.4h-2c0 11.218 6.962 19.4 17 19.4v-2zm34.01-24.28h-1v1h1v-1zm11.2 0v1h1v-1h-1zM61.906 58h-1v1h1v-1zm44.881 0v1h1v-1h-1zm0-11.2h1v-1h-1v1zm-32.88 0l-.984-.178-.213 1.178h1.197v-1zm10.56-47c-6.905 0-12.81 2.299-16.992 6.418-4.184 4.12-6.568 9.988-6.568 16.982h2c0-6.526 2.216-11.858 5.972-15.558C72.636 3.942 78.01 1.8 84.466 1.8v-2zm-22.56 24.4h11.2v-2h-11.2v2zm12.2-1c0-3.528 1.02-6.171 2.744-7.93 1.722-1.757 4.26-2.75 7.536-2.75v-2c-3.685 0-6.786 1.127-8.964 3.35-2.177 2.221-3.316 5.418-3.316 9.33h2zm10.28-10.68c2.928 0 5.318.724 6.95 1.95 1.603 1.204 2.53 2.93 2.53 5.13h2c0-2.84-1.233-5.154-3.33-6.73-2.068-1.554-4.918-2.35-8.15-2.35v2zm9.48 7.08c0 1.625-.45 2.805-1.195 3.728-.761.945-1.888 1.692-3.354 2.33-1.467.638-3.203 1.139-5.127 1.63-1.896.484-4.002.966-6.075 1.55-4.162 1.171-8.49 2.828-11.768 6.122-3.313 3.328-5.441 8.212-5.441 15.6h2c0-6.972 1.992-11.309 4.859-14.19 2.902-2.916 6.814-4.46 10.892-5.607 2.047-.577 4.06-1.035 6.028-1.537 1.938-.495 3.807-1.027 5.43-1.734 1.624-.707 3.072-1.617 4.113-2.909 1.059-1.313 1.638-2.948 1.638-4.983h-2zm-32.96 30.96V58h2v-7.44h-2zm1 8.44h44.88v-2h-44.88v2zm45.88-1V46.8h-2V58h2zm-1-12.2h-32.88v2h32.88v-2zM74.89 46.978c.52-2.875 2.504-4.744 5.5-6.235 3.037-1.513 6.85-2.515 10.803-3.791 3.876-1.252 7.84-2.76 10.832-5.297 3.05-2.585 5.041-6.199 5.041-11.495h-2c0 4.703-1.729 7.76-4.334 9.97-2.664 2.258-6.289 3.67-10.153 4.918-3.787 1.224-7.865 2.302-11.081 3.904-3.26 1.624-5.896 3.905-6.576 7.67l1.968.356zm32.176-26.818c0-6.214-2.24-11.338-6.246-14.898C96.827 1.714 91.171-.2 84.466-.2v2c6.335 0 11.479 1.806 15.026 4.958 3.534 3.14 5.574 7.696 5.574 13.402h2z" fill="#fff"/></svg>