<svg width="108" height="60" fill="none" xmlns="http://www.w3.org/2000/svg"><path d="M-.462 30.08c0 17.123 11.982 30.12 28.12 30.12v-2c-14.9 0-26.12-11.964-26.12-28.12h-2zm28.12 30.12c16.21 0 28.04-12.348 28.04-30.12h-2c0 16.788-11.05 28.12-26.04 28.12v2zm28.04-30.12c0-8.98-2.934-16.555-7.94-21.894C42.749 2.844 35.72-.2 27.658-.2v2c7.539 0 14.03 2.836 18.64 7.754 4.615 4.921 7.4 11.986 7.4 20.526h2zM27.658-.2C11.434-.2-.462 12.802-.462 30.08h2c0-16.322 11.144-28.28 26.12-28.28v-2zm-14.92 30.28c0-5.325 1.581-9.72 4.217-12.766 2.626-3.035 6.347-4.794 10.783-4.794v-2c-5.003 0-9.282 2.001-12.296 5.486-3.005 3.473-4.704 8.36-4.704 14.074h2zm15-17.56c4.393 0 8.052 1.755 10.628 4.788 2.588 3.045 4.132 7.44 4.132 12.772h2c0-5.708-1.655-10.593-4.607-14.067-2.964-3.488-7.185-5.493-12.153-5.493v2zm14.76 17.56c0 5.207-1.541 9.564-4.13 12.601-2.58 3.026-6.24 4.799-10.63 4.799v2c4.971 0 9.19-2.027 12.151-5.501 2.951-3.463 4.61-8.306 4.61-13.899h-2zm-14.76 17.4c-8.682 0-15-7.018-15-17.4h-2c0 11.218 6.963 19.4 17 19.4v-2zM89.03 13.2l.702.712 1.734-1.712H89.03v1zM76.71 25.36l-.703-.712-.595.588.473.69.825-.566zM81.27 32l-.825.566.298.434h.527v-1zm-8.32 4.16h1v-1h-1v1zm-11.2 0v-1h-1v1h1zm29.12-12.48l-.653-.758-1.675 1.441 2.189.307.139-.99zm14.32-12.32l.652.758.348-.3v-.458h-1zm0-9.36h1V1h-1v1zm-40.4 0V1h-1v1h1zm0 11.2h-1v1h1v-1zm23.537-.712l-12.32 12.16 1.405 1.424 12.32-12.16-1.405-1.424zM75.885 25.926l4.56 6.64 1.649-1.132-4.56-6.64-1.649 1.132zM81.27 33h5.04v-2h-5.04v2zm5.04 0c2.916 0 5.167.758 6.67 2.009 1.482 1.233 2.33 3.021 2.33 5.311h2c0-2.83-1.073-5.202-3.05-6.849C92.301 31.842 89.552 31 86.31 31v2zm9 7.32c0 3.942-3.776 7.16-9.56 7.16v2c6.375 0 11.56-3.662 11.56-9.16h-2zm-9.56 7.16c-6.927 0-11.8-4.71-11.8-11.32h-2c0 7.79 5.846 13.32 13.8 13.32v-2zm-12.8-12.32h-11.2v2h11.2v-2zm-12.2 1c0 13.466 10.961 24.04 24.92 24.04v-2c-12.922 0-22.92-9.745-22.92-22.04h-2zM85.67 60.2c13.132 0 22.84-8.157 22.84-19.96h-2c0 10.437-8.532 17.96-20.84 17.96v2zm22.84-19.96c0-5.722-2.14-9.844-5.462-12.672-3.286-2.796-7.651-4.263-12.04-4.878l-.277 1.98c4.171.585 8.126 1.958 11.021 4.421 2.858 2.433 4.758 5.99 4.758 11.149h2zM91.522 24.438l14.32-12.32-1.304-1.516-14.32 12.32 1.304 1.516zM106.19 11.36V2h-2v9.36h2zm-1-10.36h-40.4v2h40.4V1zm-41.4 1v11.2h2V2h-2zm1 12.2h24.24v-2H64.79v2z" fill="#fff"/></svg>