<svg width="66" height="54" fill="none" xmlns="http://www.w3.org/2000/svg"><path fill-rule="evenodd" clip-rule="evenodd" d="M6.147.126a1.775 1.775 0 00-.8.83c-.079.184-1.11 7.21-2.646 18.032C1.317 28.741.142 36.848.09 37.006c-.145.444-.114 1.137.07 1.552.33.747 1.258 1.336 2.54 1.61.543.116 1.05.146 2.392.144 2.15-.004 3.805-.212 6.488-.816 4.863-1.095 10.73-3.324 14.665-5.57.35-.2.644-.352.654-.338.01.015-.613 3.005-1.384 6.645-.772 3.64-1.404 6.733-1.405 6.872-.004.625.213.992 2.131 3.605 1.049 1.428 1.993 2.678 2.097 2.776.332.312.881.512 1.413.514.39.001 3.644-.816 15.61-3.923 8.316-2.158 15.298-3.983 15.517-4.055.492-.163 1.027-.682 1.213-1.178.077-.206.867-5.516 1.836-12.332.935-6.584 1.795-12.596 1.91-13.36.232-1.547.22-2.006-.068-2.52-.259-.463-3.924-5.451-4.142-5.637-.364-.31-.976-.544-1.422-.545-.33 0-4.001.991-14.83 4.006-15.677 4.364-14.874 4.11-15.301 4.843-.112.193-.309.813-.442 1.395-.133.576-.258 1.064-.278 1.085-.02.02-4.878-4.809-10.795-10.732C12.643 5.122 7.685.213 7.542.136c-.33-.178-1.07-.184-1.395-.011zM8.19 2.179c.305.164 19.798 19.638 19.968 19.949.283.514.025 1.43-.518 1.848-.252.193-.427.234-1.602.372-6.887.81-15.688 4.044-21.242 7.808-1.015.687-1.216.792-1.58.826-.746.07-1.326-.416-1.326-1.108 0-.18.911-6.736 2.025-14.571C5.895 3.378 5.945 3.05 6.166 2.729c.43-.624 1.399-.887 2.024-.55zm50.507 10.03c.697.338 1.256 1.176 1.256 1.883 0 .144-.238 1.765-.53 3.6a8369.67 8369.67 0 00-1.782 11.306c-.689 4.382-1.292 8.108-1.34 8.281-.113.401-.672 1.017-1.092 1.204-.178.08-4.885 1.413-10.46 2.964-5.576 1.55-11.615 3.23-13.42 3.733-2.882.803-3.34.91-3.737.873a2.218 2.218 0 01-1.91-1.585c-.132-.458-.13-.508.033-1.334.195-.986 1.916-9.16 2.052-9.748.085-.364.134-.42.71-.81 3.274-2.213 4.982-4.148 4.99-5.653.005-.891-.066-1-1.819-2.787l-1.602-1.634.181-.858c.1-.472.226-.993.28-1.158.14-.426.51-.912.863-1.131.194-.121 4.892-1.47 13.125-3.768 11.662-3.256 12.87-3.578 13.35-3.558.314.013.659.085.852.18zm-9.489 7.11c-1.115.29-3.669.949-5.676 1.463-6.325 1.62-7.394 1.907-7.727 2.079-.381.195-.87.743-.986 1.103-.212.658-2.762 13.18-2.762 13.56 0 1.037.88 1.958 1.98 2.072.37.039 1.336-.213 8.342-2.174 4.358-1.22 8.013-2.252 8.123-2.294.301-.116.848-.647 1.026-.998.115-.227.422-2.02 1.13-6.592.533-3.454.97-6.462.97-6.684 0-.557-.319-1.18-.791-1.542-.376-.29-1.017-.53-1.393-.525-.114.002-1.12.241-2.236.532zm1.136 7.223c.707.31 1.226.98 1.309 1.692.045.393-.525 4.412-.708 4.986-.111.35-.654.956-1.008 1.125-.159.076-2.066.637-4.239 1.247-4.328 1.215-4.526 1.25-5.271.925-.729-.319-1.315-1.175-1.315-1.923 0-.377.874-4.52 1.031-4.886.17-.398.656-.887 1.052-1.062.285-.125 7.511-2.198 7.973-2.287.3-.058.808.021 1.176.183z" fill="#fff"/></svg>